<svg width="55" height="39" viewBox="0 0 55 39" fill="none" xmlns="http://www.w3.org/2000/svg">
<path d="M20.1647 31.5002C19.5783 35.5991 16.0532 38.7502 11.792 38.7502C7.53083 38.7502 4.00564 35.5991 3.41931 31.5002H0.916992V2.50016C0.916992 1.16549 1.99898 0.0834961 3.33366 0.0834961H37.167C38.5017 0.0834961 39.5837 1.16549 39.5837 2.50016V7.3335H46.8337L54.0837 17.1348V31.5002H49.1648C48.5783 35.5991 45.0531 38.7502 40.792 38.7502C36.5309 38.7502 33.0057 35.5991 32.4192 31.5002H20.1647ZM34.7503 4.91683H5.75033V24.3722C7.28554 22.8055 9.42525 21.8335 11.792 21.8335C15.1661 21.8335 18.0788 23.8091 19.4363 26.6668H33.1476C33.5529 25.8137 34.0969 25.039 34.7503 24.3722V4.91683ZM39.5837 19.4168H49.2503V18.7281L44.3969 12.1668H39.5837V19.4168ZM40.792 33.9168C42.3703 33.9168 43.713 32.9081 44.2106 31.5002C44.3443 31.1222 44.417 30.7155 44.417 30.2918C44.417 28.2899 42.794 26.6668 40.792 26.6668C38.79 26.6668 37.167 28.2899 37.167 30.2918C37.167 30.7155 37.2397 31.1222 37.3734 31.5002C37.871 32.9081 39.2137 33.9168 40.792 33.9168ZM15.417 30.2918C15.417 28.2899 13.794 26.6668 11.792 26.6668C9.78995 26.6668 8.16699 28.2899 8.16699 30.2918C8.16699 30.7155 8.23969 31.1222 8.37326 31.5002C8.87089 32.9081 10.2136 33.9168 11.792 33.9168C13.3703 33.9168 14.7131 32.9081 15.2107 31.5002C15.3443 31.1222 15.417 30.7155 15.417 30.2918Z" fill="#8E8E8E"/>
</svg>
