<svg width="20" height="14" viewBox="0 0 20 14" fill="none" xmlns="http://www.w3.org/2000/svg">
<path d="M17.3758 13.3709C17.8879 13.3709 18.3789 13.2162 18.741 12.941C19.103 12.6657 19.3064 12.2924 19.3064 11.9031V8.31887C19.3064 7.9296 19.103 7.55627 18.741 7.28102C18.3789 7.00576 17.8879 6.85112 17.3758 6.85112H14.6961C14.6961 6.33595 14.7367 5.8193 14.8158 5.30412C14.9355 4.75812 15.1363 4.27229 15.4143 3.84811C15.6943 3.42247 16.0534 3.08929 16.4935 2.84564C16.9318 2.57264 17.4897 2.43614 18.1693 2.43614V0.161133C17.0515 0.161133 16.0746 0.343133 15.2348 0.707135C14.4023 1.06745 13.6865 1.56496 13.1401 2.16314C12.5916 2.82262 12.1874 3.54531 11.9431 4.30312C11.6969 5.13938 11.5764 5.99419 11.584 6.85112V11.9031C11.584 12.2924 11.7874 12.6657 12.1495 12.941C12.5115 13.2162 13.0026 13.3709 13.5146 13.3709H17.3758ZM5.79216 13.3709C6.30419 13.3709 6.79525 13.2162 7.15731 12.941C7.51937 12.6657 7.72277 12.2924 7.72277 11.9031V8.31887C7.72277 7.9296 7.51937 7.55627 7.15731 7.28102C6.79525 7.00576 6.30419 6.85112 5.79216 6.85112H3.11248C3.11248 6.33595 3.15302 5.8193 3.23217 5.30412C3.35187 4.75812 3.55266 4.27229 3.83066 3.84811C4.1106 3.42247 4.4697 3.08929 4.90988 2.84564C5.34812 2.57264 5.90607 2.43614 6.58564 2.43614V0.161133C5.46782 0.161133 4.49093 0.343133 3.65112 0.707135C2.81861 1.06745 2.10285 1.56496 1.55641 2.16314C1.00797 2.82262 0.603736 3.54531 0.359428 4.30312C0.113248 5.13938 -0.00722159 5.99419 0.000334533 6.85112V11.9031C0.000334533 12.2924 0.203737 12.6657 0.565797 12.941C0.927856 13.2162 1.41891 13.3709 1.93094 13.3709H5.79216Z" fill="#1E1E1E"/>
</svg>
