<svg width="16" height="16" viewBox="0 0 16 16" fill="none" xmlns="http://www.w3.org/2000/svg">
<path fill-rule="evenodd" clip-rule="evenodd" d="M5.99967 13.9173C5.95365 13.9173 5.91634 13.9546 5.91634 14.0007C5.91634 14.0467 5.95365 14.084 5.99967 14.084C6.0457 14.084 6.08301 14.0467 6.08301 14.0007C6.08301 13.9546 6.0457 13.9173 5.99967 13.9173ZM4.74967 14.0007C4.74967 13.3103 5.30932 12.7507 5.99967 12.7507C6.69003 12.7507 7.24967 13.3103 7.24967 14.0007C7.24967 14.691 6.69003 15.2507 5.99967 15.2507C5.30932 15.2507 4.74967 14.691 4.74967 14.0007Z" fill="#474747"/>
<path fill-rule="evenodd" clip-rule="evenodd" d="M13.333 13.9173C13.287 13.9173 13.2497 13.9546 13.2497 14.0007C13.2497 14.0467 13.287 14.084 13.333 14.084C13.379 14.084 13.4163 14.0467 13.4163 14.0007C13.4163 13.9546 13.379 13.9173 13.333 13.9173ZM12.083 14.0007C12.083 13.3103 12.6427 12.7507 13.333 12.7507C14.0234 12.7507 14.583 13.3103 14.583 14.0007C14.583 14.691 14.0234 15.2507 13.333 15.2507C12.6427 15.2507 12.083 14.691 12.083 14.0007Z" fill="#474747"/>
<path fill-rule="evenodd" clip-rule="evenodd" d="M0.0830078 0.667318C0.0830078 0.345152 0.344175 0.0839844 0.666341 0.0839844H3.33301C3.61104 0.0839844 3.85043 0.280209 3.905 0.552835L4.47832 3.41732H15.333C15.5069 3.41732 15.6716 3.49486 15.7825 3.62881C15.8933 3.76276 15.9386 3.93915 15.906 4.10993L14.8385 9.70763C14.7509 10.1488 14.5108 10.5452 14.1604 10.8272C13.8116 11.1081 13.3755 11.2578 12.9279 11.2507H6.45811C6.01049 11.2578 5.57441 11.1081 5.22558 10.8272C4.87531 10.5453 4.63533 10.1491 4.54762 9.70813L3.43346 4.14152C3.42926 4.12455 3.42579 4.10728 3.4231 4.08975L2.85486 1.25065H0.666341C0.344175 1.25065 0.0830078 0.989484 0.0830078 0.667318ZM4.71183 4.58398L5.69183 9.48034C5.72612 9.65299 5.82005 9.80808 5.95716 9.91845C6.09428 10.0288 6.26584 10.0875 6.44183 10.0841L6.45301 10.084H12.933L12.9442 10.0841C13.1202 10.0875 13.2917 10.0288 13.4289 9.91845C13.5655 9.80848 13.6592 9.65413 13.6938 9.48224L13.6942 9.48034L14.6279 4.58398H4.71183Z" fill="#474747"/>
</svg>
