<svg width="84" height="51" viewBox="0 0 84 51" fill="none" xmlns="http://www.w3.org/2000/svg">
<g style="mix-blend-mode:multiply">
<path d="M16.8155 38.8585H14.6035V36.9338H21.1443V38.8585H18.9323V50.4013H16.8155V38.8585Z" fill="#0F1340"/>
</g>
<path d="M53.132 28.922H32.5335C25.2607 28.922 19.343 23.006 19.343 15.7331V7.90639C19.343 5.71691 17.562 3.93418 15.3708 3.93418C14.2942 3.93418 13.4219 3.06185 13.4219 1.98528C13.4219 0.90871 14.2942 0.036377 15.3708 0.036377C19.7117 0.036377 23.2425 3.56724 23.2425 7.90812V15.7349C23.2425 20.8581 27.4103 25.0242 32.5335 25.0242H53.132C54.2086 25.0242 55.0809 25.8965 55.0809 26.9731C55.0809 28.0496 54.2086 28.922 53.132 28.922Z" fill="#CAA34E"/>
<path d="M53.4981 28.9219C52.4215 28.9219 51.5492 28.0496 51.5492 26.973C51.5492 25.8965 52.4215 25.0241 53.4981 25.0241C57.1051 25.0241 60.0388 22.0887 60.0388 18.4834C60.0388 14.8781 57.1051 11.9426 53.4981 11.9426C53.036 11.9426 52.579 11.9911 52.1359 12.0863C51.184 12.2905 50.2286 11.7609 49.8963 10.847C48.3835 6.68961 44.394 3.8978 39.9666 3.8978C35.5391 3.8978 31.5808 6.67057 30.0542 10.7986C29.6803 11.8076 28.5588 12.3251 27.5497 11.9513C26.5406 11.5774 26.0231 10.4559 26.397 9.4468C28.4861 3.79568 33.9399 0 39.9666 0C45.4948 0 50.5263 3.18297 52.939 8.06041C53.126 8.05003 53.3129 8.04484 53.4998 8.04484C59.2565 8.04484 63.9401 12.7284 63.9401 18.4851C63.9401 24.2418 59.2565 28.9254 53.4998 28.9254L53.4981 28.9219Z" fill="#CAA34E"/>
<path d="M46.652 15.3715C46.2522 15.3715 45.849 15.2486 45.5011 14.9942C44.6322 14.3572 44.4435 13.137 45.0805 12.2699C45.5097 11.6831 46.0065 11.1379 46.5551 10.6498C47.9069 9.44689 49.5512 8.61091 51.3131 8.23532C52.3672 8.01031 53.4022 8.68187 53.6272 9.73594C53.8522 10.7883 53.1807 11.825 52.1266 12.05C51.0258 12.2854 49.996 12.8081 49.1479 13.5628C48.8035 13.8691 48.4936 14.2101 48.2254 14.5753C47.8429 15.0963 47.2509 15.3732 46.6503 15.3732L46.652 15.3715Z" fill="#CAA34E"/>
<g style="mix-blend-mode:multiply">
<path d="M0 47.2844V40.0496C0 37.9726 1.0783 36.7402 3.1172 36.7402C5.1561 36.7402 6.2344 37.9708 6.2344 40.0496V41.474H4.23357V39.9163C4.23357 39.0318 3.80953 38.6649 3.17605 38.6649C2.54257 38.6649 2.11852 39.0301 2.11852 39.9163V47.4384C2.11852 48.3229 2.54257 48.669 3.17605 48.669C3.80953 48.669 4.23357 48.3229 4.23357 47.4384V45.3805H6.2344V47.2844C6.2344 49.3631 5.1561 50.5937 3.1172 50.5937C1.0783 50.5937 0 49.3631 0 47.2844Z" fill="#0F1340"/>
</g>
<g style="mix-blend-mode:multiply">
<path d="M7.38867 47.2079V40.1272C7.38867 37.9723 8.52409 36.7417 10.6011 36.7417C12.678 36.7417 13.8135 37.9723 13.8135 40.1272V47.2079C13.8135 49.3628 12.678 50.5934 10.6011 50.5934C8.52409 50.5934 7.38867 49.3628 7.38867 47.2079ZM11.6984 47.3429V39.9939C11.6984 39.0316 11.2744 38.6664 10.6011 38.6664C9.92778 38.6664 9.50373 39.0316 9.50373 39.9939V47.3429C9.50373 48.3053 9.92778 48.6705 10.6011 48.6705C11.2744 48.6705 11.6984 48.3053 11.6984 47.3429Z" fill="#0F1340"/>
</g>
<g style="mix-blend-mode:multiply">
<path d="M24.0108 38.8585H21.7988V36.9338H28.3396V38.8585H26.1276V50.4013H24.0108V38.8585Z" fill="#0F1340"/>
</g>
<g style="mix-blend-mode:multiply">
<path d="M29.1289 47.2079V40.1272C29.1289 37.9723 30.2643 36.7417 32.3413 36.7417C34.4183 36.7417 35.5537 37.9723 35.5537 40.1272V47.2079C35.5537 49.3628 34.4183 50.5934 32.3413 50.5934C30.2643 50.5934 29.1289 49.3628 29.1289 47.2079ZM33.4386 47.3429V39.9939C33.4386 39.0316 33.0146 38.6664 32.3413 38.6664C31.668 38.6664 31.244 39.0316 31.244 39.9939V47.3429C31.244 48.3053 31.668 48.6705 32.3413 48.6705C33.0146 48.6705 33.4386 48.3053 33.4386 47.3429Z" fill="#0F1340"/>
</g>
<g style="mix-blend-mode:multiply">
<path d="M36.9766 36.9338H39.6316L41.6896 44.9942H41.7277V36.9338H43.6125V50.4013H41.4386L38.8995 40.5703H38.8614V50.4013H36.9766V36.9338Z" fill="#0F1340"/>
</g>
<g style="mix-blend-mode:multiply">
<path d="M48.1367 47.2844V40.0496C48.1367 37.9726 49.215 36.7402 51.2539 36.7402C53.2928 36.7402 54.3711 37.9708 54.3711 40.0496V41.474H52.3703V39.9163C52.3703 39.0318 51.9463 38.6649 51.3128 38.6649C50.6793 38.6649 50.2552 39.0301 50.2552 39.9163V47.4384C50.2552 48.3229 50.6793 48.669 51.3128 48.669C51.9463 48.669 52.3703 48.3229 52.3703 47.4384V45.3805H54.3711V47.2844C54.3711 49.3631 53.2928 50.5937 51.2539 50.5937C49.215 50.5937 48.1367 49.3631 48.1367 47.2844Z" fill="#0F1340"/>
</g>
<g style="mix-blend-mode:multiply">
<path d="M55.6406 36.9338H57.7574V48.4767H61.2398V50.4013H55.6406V36.9338Z" fill="#0F1340"/>
</g>
<g style="mix-blend-mode:multiply">
<path d="M62.0273 47.2079V40.1272C62.0273 37.9723 63.1628 36.7417 65.2397 36.7417C67.3167 36.7417 68.4521 37.9723 68.4521 40.1272V47.2079C68.4521 49.3628 67.3167 50.5934 65.2397 50.5934C63.1628 50.5934 62.0273 49.3628 62.0273 47.2079ZM66.3371 47.3429V39.9939C66.3371 39.0316 65.913 38.6664 65.2397 38.6664C64.5665 38.6664 64.1424 39.0316 64.1424 39.9939V47.3429C64.1424 48.3053 64.5665 48.6705 65.2397 48.6705C65.913 48.6705 66.3371 48.3053 66.3371 47.3429Z" fill="#0F1340"/>
</g>
<g style="mix-blend-mode:multiply">
<path d="M69.8008 47.208V36.9338H71.9176V47.362C71.9176 48.3243 72.3209 48.6705 72.9941 48.6705C73.6674 48.6705 74.0724 48.3243 74.0724 47.362V36.9338H76.1113V47.208C76.1113 49.3628 75.033 50.5934 72.9561 50.5934C70.8791 50.5934 69.8008 49.3628 69.8008 47.208Z" fill="#0F1340"/>
</g>
<g style="mix-blend-mode:multiply">
<path d="M77.6113 36.9338H80.8445C82.9613 36.9338 83.9998 38.1073 83.9998 40.2622V47.073C83.9998 49.2278 82.9613 50.4013 80.8445 50.4013H77.6113V36.9338ZM80.8047 48.4784C81.478 48.4784 81.883 48.1322 81.883 47.1699V40.167C81.883 39.2047 81.4797 38.8585 80.8047 38.8585H79.7264V48.4784H80.8047Z" fill="#0F1340"/>
</g>
</svg>
